<?xml version="1.0" encoding="UTF-8" standalone="no"?>
<!-- Created with Inkscape (http://www.inkscape.org/) -->

<svg
   width="140"
   height="36"
   viewBox="0 0 140 36"
   version="1.1"
   id="svg1"
   inkscape:version="1.3.1 (9b9bdc1480, 2023-11-25, custom)"
   sodipodi:docname="logo.svg"
   xml:space="preserve"
   xmlns:inkscape="http://www.inkscape.org/namespaces/inkscape"
   xmlns:sodipodi="http://sodipodi.sourceforge.net/DTD/sodipodi-0.dtd"
   xmlns:xlink="http://www.w3.org/1999/xlink"
   xmlns="http://www.w3.org/2000/svg"
   xmlns:svg="http://www.w3.org/2000/svg"><sodipodi:namedview
     id="namedview1"
     pagecolor="#601165"
     bordercolor="#666666"
     borderopacity="1.0"
     inkscape:showpageshadow="2"
     inkscape:pageopacity="0.0"
     inkscape:pagecheckerboard="0"
     inkscape:deskcolor="#d1d1d1"
     inkscape:document-units="mm"
     showguides="true"
     inkscape:zoom="13.512458"
     inkscape:cx="70.78653"
     inkscape:cy="4.1443237"
     inkscape:window-width="3770"
     inkscape:window-height="2096"
     inkscape:window-x="70"
     inkscape:window-y="27"
     inkscape:window-maximized="1"
     inkscape:current-layer="layer2" /><defs
     id="defs1"><linearGradient
       id="linearGradient21"><stop
         style="stop-color:#010101;stop-opacity:0;"
         offset="0"
         id="stop20" /><stop
         style="stop-color:#ffffff;stop-opacity:1;"
         offset="1"
         id="stop21" /></linearGradient><linearGradient
       id="linearGradient13"><stop
         style="stop-color:#bbbbbb;stop-opacity:0;"
         offset="0"
         id="stop17" /><stop
         style="stop-color:#ffffff;stop-opacity:1;"
         offset="1"
         id="stop18" /></linearGradient><linearGradient
       inkscape:collect="always"
       xlink:href="#linearGradient21"
       id="linearGradient19"
       gradientUnits="userSpaceOnUse"
       gradientTransform="matrix(0,0.12381186,-9.155417,0,1402.5348,137.15992)"
       x1="43.616741"
       y1="145.86282"
       x2="93.536415"
       y2="145.86282"
       spreadMethod="reflect" /><linearGradient
       inkscape:collect="always"
       xlink:href="#linearGradient13"
       id="linearGradient22"
       gradientUnits="userSpaceOnUse"
       gradientTransform="matrix(0,0.12381186,-9.155417,0,1402.5348,137.15992)"
       x1="43.616741"
       y1="145.86282"
       x2="93.536415"
       y2="145.86282"
       spreadMethod="reflect" /><linearGradient
       inkscape:collect="always"
       xlink:href="#linearGradient4689"
       id="linearGradient1478"
       gradientUnits="userSpaceOnUse"
       gradientTransform="matrix(0.562541,0,0,0.567972,-45.99112,14.297629)"
       x1="26.648937"
       y1="20.603781"
       x2="135.66525"
       y2="114.39767" /><linearGradient
       id="linearGradient4689"><stop
         style="stop-color:#5a9fd4;stop-opacity:1;"
         offset="0"
         id="stop4691" /><stop
         style="stop-color:#306998;stop-opacity:1;"
         offset="1"
         id="stop4693" /></linearGradient><linearGradient
       inkscape:collect="always"
       xlink:href="#linearGradient4671"
       id="linearGradient1475"
       gradientUnits="userSpaceOnUse"
       gradientTransform="matrix(0.562541,0,0,0.567972,-45.99112,14.297629)"
       x1="150.96111"
       y1="192.35176"
       x2="112.03144"
       y2="137.27299" /><linearGradient
       id="linearGradient4671"><stop
         style="stop-color:#ffd43b;stop-opacity:1;"
         offset="0"
         id="stop4673" /><stop
         style="stop-color:#ffe873;stop-opacity:1"
         offset="1"
         id="stop4675" /></linearGradient></defs><g
     inkscape:groupmode="layer"
     id="layer2"
     inkscape:label="Layer 2"><g
       id="g20"
       transform="matrix(0.27561195,0,0,0.27561195,-8.6298394,-17.400523)"><path
         style="fill:url(#linearGradient19);fill-rule:evenodd;stroke:none;stroke-width:0.281696px;stroke-linecap:butt;stroke-linejoin:miter;stroke-opacity:1"
         d="m 96.140815,142.56648 v 6.17436 H 38.058747 v -6.18065 z"
         id="path19"
         transform="matrix(-1,0,0,1,194.40637,0)" /><path
         style="fill:url(#linearGradient22);fill-rule:evenodd;stroke:none;stroke-width:0.281696px;stroke-linecap:butt;stroke-linejoin:miter;stroke-opacity:1"
         d="m 96.140815,142.56648 v 6.17436 H 38.058747 v -6.18065 z"
         id="path13" /><path
         style="fill:#ffffff;fill-opacity:1;stroke:#ffffff;stroke-width:0.264583px;stroke-linecap:butt;stroke-linejoin:miter;stroke-opacity:1"
         d="M 43.677215,76.169223 V 189.28063 H 34.559851 V 67.404725 h 9.189376 l 57.260833,75.271935 v 46.56428 h -7.636489 v -46.68855 z"
         id="path12" /><path
         style="fill:#ffffff;fill-opacity:1;stroke:#ffffff;stroke-width:0.264583px;stroke-linecap:butt;stroke-linejoin:miter;stroke-opacity:1"
         d="M 43.677215,76.169223 V 189.28063 H 34.559851 V 67.404725 h 9.189376 l 57.260833,75.271935 v 46.56428 h -7.636489 v -46.68855 z"
         id="path18"
         transform="matrix(-1,0,0,1,194.40637,0)" /></g><path
       d="m 92.463887,30.530155 c -0.345343,0 -0.667661,-0.0921 -0.966958,-0.25325 l -3.062031,-1.8188 c -0.460456,-0.25325 -0.230228,-0.34534 -0.09209,-0.39139 0.621616,-0.2072 0.73673,-0.25325 1.381368,-0.62161 0.06907,-0.0461 0.16116,-0.023 0.230228,0.023 l 2.348325,1.40439 c 0.09209,0.046 0.207205,0.046 0.276273,0 l 9.186098,-5.31827 c 0.0921,-0.046 0.13813,-0.13813 0.13813,-0.25325 v -10.61349 c 0,-0.11511 -0.046,-0.2072 -0.13813,-0.25325 L 92.579002,7.1389952 c -0.09209,-0.046 -0.207204,-0.046 -0.276273,0 l -9.186095,5.2952398 c -0.09209,0.0461 -0.138137,0.16116 -0.138137,0.25325 v 10.61351 c 0,0.0921 0.04605,0.20721 0.138137,0.25325 l 2.509485,1.45044 c 1.358345,0.69068 2.210188,-0.11512 2.210188,-0.92091 v -10.47537 c 0,-0.13814 0.115114,-0.27628 0.276273,-0.27628 h 1.174163 c 0.138137,0 0.276273,0.11512 0.276273,0.27628 v 10.47537 c 0,1.8188 -0.98998,2.87785 -2.716689,2.87785 -0.529524,0 -0.943935,0 -2.118097,-0.57557 l -2.417394,-1.38137 c -0.598592,-0.34534 -0.966957,-0.98998 -0.966957,-1.68066 v -10.61351 c 0,-0.69069 0.368365,-1.33533 0.966957,-1.68067 l 9.186095,-5.3182598 c 0.57557,-0.32232 1.358345,-0.32232 1.933915,0 l 9.186094,5.3182598 c 0.59859,0.34534 0.96696,0.98998 0.96696,1.68067 v 10.61351 c 0,0.69068 -0.36837,1.33532 -0.96696,1.68066 l -9.186094,5.31827 c -0.299296,0.13813 -0.644639,0.2072 -0.966957,0.2072 z m 2.831803,-7.29823 c -4.028989,0 -4.857809,-1.84182 -4.857809,-3.40737 0,-0.13814 0.115114,-0.27627 0.276273,-0.27627 h 1.197185 c 0.138137,0 0.253251,0.0921 0.253251,0.23022 0.184183,1.22021 0.713707,1.81881 3.154123,1.81881 1.933917,0 2.762737,-0.43744 2.762737,-1.47346 0,-0.5986 -0.23023,-1.03603 -3.246216,-1.33533 -2.509484,-0.25325 -4.075034,-0.80579 -4.075034,-2.80878 0,-1.86484 1.56555,-2.96994 4.190149,-2.96994 2.946921,0 4.397351,1.01301 4.581531,3.22319 0,0.0691 -0.023,0.13814 -0.0691,0.20721 -0.046,0.046 -0.11511,0.0921 -0.18418,0.0921 h -1.19718 c -0.11512,0 -0.23023,-0.0921 -0.25326,-0.2072 -0.27627,-1.26626 -0.98997,-1.68067 -2.877843,-1.68067 -2.118098,0 -2.371349,0.73673 -2.371349,1.28928 0,0.66766 0.299297,0.87486 3.154123,1.24323 2.831799,0.36836 4.167129,0.89789 4.167129,2.87785 -0.023,2.026 -1.68067,3.17714 -4.604562,3.17714 z"
       fill="#539e43"
       id="path1"
       style="stroke-width:0.0868751" /><g
       id="g24"
       transform="matrix(0.26512185,0,0,0.26512185,116.68007,-3.7915582)"><path
         style="fill:url(#linearGradient1478);fill-opacity:1"
         d="m 23.918785,26.000919 c -4.583653,0.0213 -8.960939,0.412218 -12.8125,1.09375 -11.346216,2.004504 -13.406249,6.200102 -13.40625,13.9375 v 10.21875 h 26.8125 v 3.40625 h -26.8125 -10.0625 c -7.792459,0 -14.615759,4.683717 -16.75,13.59375 -2.46182,10.212966 -2.571015,16.586023 0,27.25 1.905928,7.937851 6.457543,13.593751 14.25,13.593751 h 9.21875 V 96.844669 c 0,-8.849902 7.657144,-16.656248 16.75,-16.65625 h 26.78125 c 7.454951,0 13.406253,-6.138164 13.40625,-13.625 v -25.53125 c 0,-7.266339 -6.12998,-12.724777 -13.40625,-13.9375 -4.605987,-0.766725 -9.385097,-1.115048 -13.96875,-1.09375 z m -14.5,8.21875 c 2.769547,0 5.03125,2.298646 5.03125,5.125 -2e-6,2.816336 -2.261703,5.09375 -5.03125,5.09375 -2.779476,-1e-6 -5.03125,-2.277415 -5.03125,-5.09375 -1e-6,-2.826353 2.251774,-5.125 5.03125,-5.125 z"
         id="path1948" /><path
         style="fill:url(#linearGradient1475);fill-opacity:1"
         d="m 54.637535,54.657169 v 11.90625 c 0,9.230755 -7.825895,16.999999 -16.75,17 h -26.78125 c -7.335833,0 -13.406249,6.278483 -13.40625,13.625 v 25.531251 c 0,7.26634 6.318588,11.54032 13.40625,13.625 8.487331,2.49561 16.626237,2.94663 26.78125,0 6.750155,-1.95439 13.406253,-5.88761 13.40625,-13.625 v -10.21875 h -26.78125 v -3.40625 h 26.78125 13.406254 c 7.79246,0 10.69625,-5.43541 13.40624,-13.593751 2.79933,-8.398886 2.68022,-16.475776 0,-27.25 -1.92578,-7.757441 -5.60387,-13.59375 -13.40624,-13.59375 z m -15.0625,64.656251 c 2.779478,0 5.03125,2.27742 5.03125,5.09375 -2e-6,2.82635 -2.251775,5.125 -5.03125,5.125 -2.76955,0 -5.03125,-2.29865 -5.03125,-5.125 2e-6,-2.81633 2.261697,-5.09375 5.03125,-5.09375 z"
         id="path1950" /></g><g
       id="g25"
       transform="matrix(0.09619893,0,0,0.09619893,51.91248,1.3517698)"><path
         d="m 82.554,267.473 c 0,0 -13.198,7.675 9.393,10.272 27.369,3.122 41.356,2.675 71.517,-3.034 0,0 7.93,4.972 19.003,9.279 -67.611,28.977 -153.019,-1.679 -99.913,-16.517 m -8.262,-37.814 c 0,0 -14.803,10.958 7.805,13.296 29.236,3.016 52.324,3.263 92.276,-4.43 0,0 5.526,5.602 14.215,8.666 -81.747,23.904 -172.798,1.885 -114.296,-17.532"
         fill="#5382a1"
         id="path1-6" /><path
         d="m 143.942,165.515 c 16.66,19.18 -4.377,36.44 -4.377,36.44 0,0 42.301,-21.837 22.874,-49.183 -18.144,-25.5 -32.059,-38.172 43.268,-81.858 0,0 -118.238,29.53 -61.765,94.6"
         fill="#e76f00"
         id="path2" /><path
         d="m 233.364,295.442 c 0,0 9.767,8.047 -10.757,14.273 -39.026,11.823 -162.432,15.393 -196.714,0.471 -12.323,-5.36 10.787,-12.8 18.056,-14.362 7.581,-1.644 11.914,-1.337 11.914,-1.337 -13.705,-9.655 -88.583,18.957 -38.034,27.15 137.853,22.356 251.292,-10.066 215.535,-26.195 M 88.9,190.48 c 0,0 -62.771,14.91 -22.228,20.323 17.118,2.292 51.243,1.774 83.03,-0.89 25.978,-2.19 52.063,-6.85 52.063,-6.85 0,0 -9.16,3.923 -15.787,8.448 -63.744,16.765 -186.886,8.966 -151.435,-8.183 29.981,-14.492 54.358,-12.848 54.358,-12.848 m 112.605,62.942 c 64.8,-33.672 34.839,-66.03 13.927,-61.67 -5.126,1.066 -7.411,1.99 -7.411,1.99 0,0 1.903,-2.98 5.537,-4.27 41.37,-14.545 73.187,42.897 -13.355,65.647 0,0.001 1.003,-0.895 1.302,-1.697"
         fill="#5382a1"
         id="path3" /><path
         d="m 162.439,0.371 c 0,0 35.887,35.9 -34.037,91.101 -56.071,44.282 -12.786,69.53 -0.023,98.377 -32.73,-29.53 -56.75,-55.526 -40.635,-79.72 C 111.395,74.612 176.918,57.393 162.439,0.37"
         fill="#e76f00"
         id="path4" /><path
         d="m 95.268,344.665 c 62.199,3.982 157.712,-2.209 159.974,-31.64 0,0 -4.348,11.158 -51.404,20.018 -53.088,9.99 -118.564,8.824 -157.399,2.421 10e-4,0 7.95,6.58 48.83,9.201"
         fill="#5382a1"
         id="path5" /></g></g></svg>
